# xmcd
#
# Track frame offsets:
#	150
#	13963
#	29997
#	52279
#	70299
#	89064
#	107706
#	125904
#	142987
#	161241
#	181177
#	198053
#	217955
#	234498
#	255885
#	272786
#	289866
#	309252
#	332199
#	346966
#
# Disc length: 4789 seconds
#
# Revision: 2
# Processed by: cddbd v1.5.1PL0 Copyright (c) Steve Scherf et al.
# Submitted via: audiograbber 1.83.01
#
DISCID=3a12b314
DTITLE=Валерия - De Luxe Collection
DYEAR=1900
DGENRE=Pop
TTITLE0=Часики
TTITLE1=Была любовь
TTITLE2=Таю
TTITLE3=Не обижай меня
TTITLE4=Самолёт
TTITLE5=Обручальная
TTITLE6=С ангелом
TTITLE7=Рига-Москва
TTITLE8=Метелица
TTITLE9=Ты где-то там
TTITLE10=Обычные дела
TTITLE11=Мальчики не плачут
TTITLE12=Не обманывай
TTITLE13=Моя Москва
TTITLE14=С добрым утром
TTITLE15=Золотая рыбка
TTITLE16=Ночь нежна
TTITLE17=Жаль
TTITLE18=Пополам
TTITLE19=Цветы
EXTD=
EXTT0=
EXTT1=
EXTT2=
EXTT3=
EXTT4=
EXTT5=
EXTT6=
EXTT7=
EXTT8=
EXTT9=
EXTT10=
EXTT11=
EXTT12=
EXTT13=
EXTT14=
EXTT15=
EXTT16=
EXTT17=
EXTT18=
EXTT19=
PLAYORDER=
